<mxfile host="app.diagrams.net" modified="2020-05-30T18:42:39.376Z" agent="5.0 (X11; Linux x86_64) AppleWebKit/537.36 (KHTML, like Gecko) snap Chromium/83.0.4103.61 Chrome/83.0.4103.61 Safari/537.36" etag="-nANfHZ_ie3FoFSgIygf" version="13.1.3" type="github">
  <diagram id="pIivQVcWycitdcD2H4Fz" name="Page-1">
    <mxGraphModel dx="2844" dy="1542" grid="1" gridSize="10" guides="1" tooltips="1" connect="1" arrows="1" fold="1" page="1" pageScale="3" pageWidth="827" pageHeight="1169" math="0" shadow="0" extFonts="Quicksand^https://fonts.googleapis.com/css?family=Quicksand|Gruppo^https://fonts.googleapis.com/css?family=Gruppo|Pompiere^https://fonts.googleapis.com/css?family=Pompiere">
      <root>
        <mxCell id="0" />
        <mxCell id="1" parent="0" />
        <mxCell id="mOfdOxVqDoghl0tVKRiO-1" value="PRODUCT" style="rounded=0;whiteSpace=wrap;html=1;shadow=1;" parent="1" vertex="1">
          <mxGeometry x="1744" y="840.6500000000001" width="100" height="30" as="geometry" />
        </mxCell>
        <mxCell id="mOfdOxVqDoghl0tVKRiO-10" value="EMPLOYEE" style="rounded=0;whiteSpace=wrap;html=1;shadow=1;" parent="1" vertex="1">
          <mxGeometry x="800" y="624.85" width="120" height="30" as="geometry" />
        </mxCell>
        <mxCell id="mOfdOxVqDoghl0tVKRiO-15" value="CUSTOMER" style="rounded=0;whiteSpace=wrap;html=1;shadow=1;" parent="1" vertex="1">
          <mxGeometry x="802" y="1061" width="115" height="30" as="geometry" />
        </mxCell>
        <mxCell id="mOfdOxVqDoghl0tVKRiO-17" value="Quantity" style="ellipse;whiteSpace=wrap;html=1;shadow=1;" parent="1" vertex="1">
          <mxGeometry x="1612" y="778.9100000000001" width="80" height="34.62" as="geometry" />
        </mxCell>
        <mxCell id="mOfdOxVqDoghl0tVKRiO-21" value="" style="endArrow=none;html=1;entryX=0;entryY=0;entryDx=0;entryDy=0;exitX=1;exitY=0.5;exitDx=0;exitDy=0;shadow=0;" parent="1" source="mOfdOxVqDoghl0tVKRiO-17" target="mOfdOxVqDoghl0tVKRiO-1" edge="1">
          <mxGeometry width="50" height="50" relative="1" as="geometry">
            <mxPoint x="1681.5" y="841.4900000000002" as="sourcePoint" />
            <mxPoint x="1731.5" y="791.49" as="targetPoint" />
          </mxGeometry>
        </mxCell>
        <mxCell id="mOfdOxVqDoghl0tVKRiO-23" value="&lt;u&gt;ID&lt;/u&gt;" style="ellipse;whiteSpace=wrap;html=1;shadow=1;" parent="1" vertex="1">
          <mxGeometry x="1567" y="857.3700000000001" width="90" height="30" as="geometry" />
        </mxCell>
        <mxCell id="mOfdOxVqDoghl0tVKRiO-24" value="" style="endArrow=none;html=1;exitX=1;exitY=0.5;exitDx=0;exitDy=0;entryX=0;entryY=0.5;entryDx=0;entryDy=0;shadow=0;" parent="1" source="mOfdOxVqDoghl0tVKRiO-23" target="mOfdOxVqDoghl0tVKRiO-1" edge="1">
          <mxGeometry width="50" height="50" relative="1" as="geometry">
            <mxPoint x="1711.5" y="941.4900000000002" as="sourcePoint" />
            <mxPoint x="1761.5" y="891.4900000000002" as="targetPoint" />
          </mxGeometry>
        </mxCell>
        <mxCell id="mOfdOxVqDoghl0tVKRiO-26" value="Producer" style="ellipse;whiteSpace=wrap;html=1;shadow=1;" parent="1" vertex="1">
          <mxGeometry x="1577" y="904.6499999999999" width="90" height="30" as="geometry" />
        </mxCell>
        <mxCell id="mOfdOxVqDoghl0tVKRiO-27" value="" style="endArrow=none;html=1;exitX=1;exitY=0;exitDx=0;exitDy=0;entryX=0;entryY=0.75;entryDx=0;entryDy=0;shadow=0;" parent="1" source="mOfdOxVqDoghl0tVKRiO-26" target="mOfdOxVqDoghl0tVKRiO-1" edge="1">
          <mxGeometry width="50" height="50" relative="1" as="geometry">
            <mxPoint x="2151.5" y="921.4900000000002" as="sourcePoint" />
            <mxPoint x="2201.5" y="871.4900000000002" as="targetPoint" />
          </mxGeometry>
        </mxCell>
        <mxCell id="mOfdOxVqDoghl0tVKRiO-28" value="Price" style="ellipse;whiteSpace=wrap;html=1;shadow=1;" parent="1" vertex="1">
          <mxGeometry x="1826.77" y="934.7" width="86" height="30.5" as="geometry" />
        </mxCell>
        <mxCell id="mOfdOxVqDoghl0tVKRiO-29" value="Discount" style="ellipse;whiteSpace=wrap;html=1;shadow=1;" parent="1" vertex="1">
          <mxGeometry x="1577" y="819.6699999999998" width="70" height="29.67" as="geometry" />
        </mxCell>
        <mxCell id="mOfdOxVqDoghl0tVKRiO-30" value="" style="endArrow=none;html=1;exitX=0.5;exitY=0;exitDx=0;exitDy=0;entryX=0.889;entryY=1.062;entryDx=0;entryDy=0;shadow=0;entryPerimeter=0;" parent="1" source="mOfdOxVqDoghl0tVKRiO-28" target="mOfdOxVqDoghl0tVKRiO-1" edge="1">
          <mxGeometry width="50" height="50" relative="1" as="geometry">
            <mxPoint x="2151.5" y="921.4900000000002" as="sourcePoint" />
            <mxPoint x="2201.5" y="871.4900000000002" as="targetPoint" />
          </mxGeometry>
        </mxCell>
        <mxCell id="mOfdOxVqDoghl0tVKRiO-31" value="" style="endArrow=none;html=1;entryX=1;entryY=0.5;entryDx=0;entryDy=0;shadow=0;exitX=0;exitY=0.25;exitDx=0;exitDy=0;" parent="1" source="mOfdOxVqDoghl0tVKRiO-1" target="mOfdOxVqDoghl0tVKRiO-29" edge="1">
          <mxGeometry width="50" height="50" relative="1" as="geometry">
            <mxPoint x="1742.5" y="855.74" as="sourcePoint" />
            <mxPoint x="1911.5" y="831.4900000000002" as="targetPoint" />
          </mxGeometry>
        </mxCell>
        <mxCell id="mOfdOxVqDoghl0tVKRiO-33" value="Name" style="ellipse;whiteSpace=wrap;html=1;shadow=1;" parent="1" vertex="1">
          <mxGeometry x="325" y="693.8199999999999" width="85" height="27.1" as="geometry" />
        </mxCell>
        <mxCell id="mOfdOxVqDoghl0tVKRiO-34" value="Surname" style="ellipse;whiteSpace=wrap;html=1;shadow=1;" parent="1" vertex="1">
          <mxGeometry x="331" y="647.8499999999999" width="90" height="30" as="geometry" />
        </mxCell>
        <mxCell id="mOfdOxVqDoghl0tVKRiO-35" value="Fiscal_Code" style="ellipse;whiteSpace=wrap;html=1;shadow=1;fontStyle=4" parent="1" vertex="1">
          <mxGeometry x="720" y="577.3" width="110" height="30" as="geometry" />
        </mxCell>
        <mxCell id="mOfdOxVqDoghl0tVKRiO-36" value="Birth_Date" style="ellipse;whiteSpace=wrap;html=1;shadow=1;" parent="1" vertex="1">
          <mxGeometry x="900" y="577.3" width="130" height="30" as="geometry" />
        </mxCell>
        <mxCell id="mOfdOxVqDoghl0tVKRiO-42" value="Hire_Date" style="ellipse;whiteSpace=wrap;html=1;shadow=1;" parent="1" vertex="1">
          <mxGeometry x="1065.5" y="340" width="130" height="40" as="geometry" />
        </mxCell>
        <mxCell id="mOfdOxVqDoghl0tVKRiO-43" value="" style="endArrow=none;html=1;exitX=0;exitY=0;exitDx=0;exitDy=0;shadow=0;" parent="1" source="z-NwZpaRfGPs4gkHxWXv-11" target="mOfdOxVqDoghl0tVKRiO-42" edge="1">
          <mxGeometry width="50" height="50" relative="1" as="geometry">
            <mxPoint x="938.5" y="424.32" as="sourcePoint" />
            <mxPoint x="988.5" y="374.32" as="targetPoint" />
          </mxGeometry>
        </mxCell>
        <mxCell id="mOfdOxVqDoghl0tVKRiO-45" value="" style="endArrow=none;html=1;exitX=1;exitY=1;exitDx=0;exitDy=0;entryX=0.25;entryY=0;entryDx=0;entryDy=0;shadow=0;" parent="1" source="mOfdOxVqDoghl0tVKRiO-35" target="mOfdOxVqDoghl0tVKRiO-10" edge="1">
          <mxGeometry width="50" height="50" relative="1" as="geometry">
            <mxPoint x="795" y="363.88" as="sourcePoint" />
            <mxPoint x="825" y="348.5" as="targetPoint" />
          </mxGeometry>
        </mxCell>
        <mxCell id="mOfdOxVqDoghl0tVKRiO-55" value="BOOKING" style="rounded=0;whiteSpace=wrap;html=1;shadow=1;" parent="1" vertex="1">
          <mxGeometry x="1154.5" y="832.3700000000001" width="130" height="30" as="geometry" />
        </mxCell>
        <mxCell id="mOfdOxVqDoghl0tVKRiO-60" value="Email" style="ellipse;whiteSpace=wrap;html=1;shadow=1;fontStyle=4" parent="1" vertex="1">
          <mxGeometry x="300" y="584.3" width="110" height="30" as="geometry" />
        </mxCell>
        <mxCell id="mOfdOxVqDoghl0tVKRiO-61" value="Phone" style="ellipse;whiteSpace=wrap;html=1;shadow=1;fontStyle=0" parent="1" vertex="1">
          <mxGeometry x="44.5" y="652.67" width="95.5" height="32.47" as="geometry" />
        </mxCell>
        <mxCell id="mOfdOxVqDoghl0tVKRiO-65" value="Address" style="ellipse;whiteSpace=wrap;html=1;shadow=1;" parent="1" vertex="1">
          <mxGeometry x="44.5" y="607.3000000000001" width="90" height="30.77" as="geometry" />
        </mxCell>
        <mxCell id="mOfdOxVqDoghl0tVKRiO-93" value="STRUTTURA" style="rounded=0;whiteSpace=wrap;html=1;shadow=1;" parent="1" vertex="1">
          <mxGeometry x="1535" y="227.37" width="90" height="36.67" as="geometry" />
        </mxCell>
        <mxCell id="mOfdOxVqDoghl0tVKRiO-94" value="Address" style="ellipse;whiteSpace=wrap;html=1;shadow=1;" parent="1" vertex="1">
          <mxGeometry x="1480" y="159.43" width="95" height="24.5" as="geometry" />
        </mxCell>
        <mxCell id="mOfdOxVqDoghl0tVKRiO-95" value="Phone" style="ellipse;whiteSpace=wrap;html=1;shadow=1;fontStyle=0" parent="1" vertex="1">
          <mxGeometry x="1460" y="294.17" width="93.75" height="24.96" as="geometry" />
        </mxCell>
        <mxCell id="mOfdOxVqDoghl0tVKRiO-100" value="" style="endArrow=none;html=1;entryX=0.127;entryY=1.008;entryDx=0;entryDy=0;shadow=0;entryPerimeter=0;" parent="1" source="mOfdOxVqDoghl0tVKRiO-95" target="mOfdOxVqDoghl0tVKRiO-93" edge="1">
          <mxGeometry width="50" height="50" relative="1" as="geometry">
            <mxPoint x="1475" y="207.37" as="sourcePoint" />
            <mxPoint x="1525" y="157.37" as="targetPoint" />
          </mxGeometry>
        </mxCell>
        <mxCell id="mOfdOxVqDoghl0tVKRiO-101" value="" style="endArrow=none;html=1;exitX=0.25;exitY=0;exitDx=0;exitDy=0;entryX=0.5;entryY=1;entryDx=0;entryDy=0;shadow=0;" parent="1" source="mOfdOxVqDoghl0tVKRiO-93" target="mOfdOxVqDoghl0tVKRiO-94" edge="1">
          <mxGeometry width="50" height="50" relative="1" as="geometry">
            <mxPoint x="1605" y="217.37" as="sourcePoint" />
            <mxPoint x="1655" y="167.37" as="targetPoint" />
          </mxGeometry>
        </mxCell>
        <mxCell id="z-NwZpaRfGPs4gkHxWXv-4" value="ID" style="ellipse;whiteSpace=wrap;html=1;fontStyle=4;shadow=1;" parent="1" vertex="1">
          <mxGeometry x="1072" y="781.62" width="82.5" height="30" as="geometry" />
        </mxCell>
        <mxCell id="z-NwZpaRfGPs4gkHxWXv-5" value="Date" style="ellipse;whiteSpace=wrap;html=1;shadow=1;" parent="1" vertex="1">
          <mxGeometry x="1112" y="548" width="73" height="30" as="geometry" />
        </mxCell>
        <mxCell id="z-NwZpaRfGPs4gkHxWXv-6" value="Hour_Start" style="ellipse;whiteSpace=wrap;html=1;shadow=1;" parent="1" vertex="1">
          <mxGeometry x="1250" y="542.3" width="80" height="30" as="geometry" />
        </mxCell>
        <mxCell id="z-NwZpaRfGPs4gkHxWXv-7" value="" style="endArrow=none;html=1;entryX=0.122;entryY=-0.002;entryDx=0;entryDy=0;exitX=1;exitY=1;exitDx=0;exitDy=0;shadow=0;entryPerimeter=0;" parent="1" source="z-NwZpaRfGPs4gkHxWXv-4" target="mOfdOxVqDoghl0tVKRiO-55" edge="1">
          <mxGeometry width="50" height="50" relative="1" as="geometry">
            <mxPoint x="1477.25" y="942.72" as="sourcePoint" />
            <mxPoint x="1527.25" y="892.72" as="targetPoint" />
          </mxGeometry>
        </mxCell>
        <mxCell id="z-NwZpaRfGPs4gkHxWXv-8" value="" style="endArrow=none;html=1;exitX=1;exitY=1;exitDx=0;exitDy=0;shadow=0;" parent="1" source="z-NwZpaRfGPs4gkHxWXv-5" target="z-NwZpaRfGPs4gkHxWXv-17" edge="1">
          <mxGeometry width="50" height="50" relative="1" as="geometry">
            <mxPoint x="1557.25" y="930.72" as="sourcePoint" />
            <mxPoint x="1607.25" y="880.72" as="targetPoint" />
          </mxGeometry>
        </mxCell>
        <mxCell id="z-NwZpaRfGPs4gkHxWXv-10" value="" style="endArrow=none;html=1;exitX=0;exitY=1;exitDx=0;exitDy=0;shadow=0;" parent="1" source="z-NwZpaRfGPs4gkHxWXv-6" target="z-NwZpaRfGPs4gkHxWXv-17" edge="1">
          <mxGeometry width="50" height="50" relative="1" as="geometry">
            <mxPoint x="1737.25" y="890.72" as="sourcePoint" />
            <mxPoint x="1787.25" y="840.72" as="targetPoint" />
          </mxGeometry>
        </mxCell>
        <mxCell id="z-NwZpaRfGPs4gkHxWXv-11" value="WORK_FOR" style="rhombus;whiteSpace=wrap;html=1;shadow=1;" parent="1" vertex="1">
          <mxGeometry x="1161.5" y="364.32" width="117" height="116.9289" as="geometry" />
        </mxCell>
        <mxCell id="z-NwZpaRfGPs4gkHxWXv-17" value="SUPPLY" style="rhombus;whiteSpace=wrap;html=1;shadow=1;" parent="1" vertex="1">
          <mxGeometry x="1179.5" y="572.3" width="80" height="80" as="geometry" />
        </mxCell>
        <mxCell id="z-NwZpaRfGPs4gkHxWXv-39" value="MAKES" style="rhombus;whiteSpace=wrap;html=1;shadow=1;" parent="1" vertex="1">
          <mxGeometry x="819.5" y="807.3700000000001" width="80" height="80" as="geometry" />
        </mxCell>
        <mxCell id="z-NwZpaRfGPs4gkHxWXv-70" value="Description" style="ellipse;whiteSpace=wrap;html=1;shadow=1;" parent="1" vertex="1">
          <mxGeometry x="1669.5" y="747.9100000000001" width="96" height="29.51" as="geometry" />
        </mxCell>
        <mxCell id="z-NwZpaRfGPs4gkHxWXv-71" value="" style="endArrow=none;html=1;entryX=0.5;entryY=1;entryDx=0;entryDy=0;exitX=0.25;exitY=0;exitDx=0;exitDy=0;shadow=0;" parent="1" source="mOfdOxVqDoghl0tVKRiO-1" target="z-NwZpaRfGPs4gkHxWXv-70" edge="1">
          <mxGeometry width="50" height="50" relative="1" as="geometry">
            <mxPoint x="1766.5" y="831.49" as="sourcePoint" />
            <mxPoint x="1771.5" y="791.49" as="targetPoint" />
          </mxGeometry>
        </mxCell>
        <mxCell id="z-NwZpaRfGPs4gkHxWXv-76" value="ID" style="ellipse;whiteSpace=wrap;html=1;fontStyle=4;shadow=1;" parent="1" vertex="1">
          <mxGeometry x="1426.5" y="199.15" width="90.25" height="27.13" as="geometry" />
        </mxCell>
        <mxCell id="z-NwZpaRfGPs4gkHxWXv-77" value="" style="endArrow=none;html=1;entryX=1;entryY=1;entryDx=0;entryDy=0;exitX=0;exitY=0;exitDx=0;exitDy=0;shadow=0;" parent="1" source="mOfdOxVqDoghl0tVKRiO-93" target="z-NwZpaRfGPs4gkHxWXv-76" edge="1">
          <mxGeometry width="50" height="50" relative="1" as="geometry">
            <mxPoint x="1475" y="252.37" as="sourcePoint" />
            <mxPoint x="1525" y="202.37" as="targetPoint" />
          </mxGeometry>
        </mxCell>
        <mxCell id="z-NwZpaRfGPs4gkHxWXv-78" value="ADMINISTERS" style="rhombus;whiteSpace=wrap;html=1;shadow=1;" parent="1" vertex="1">
          <mxGeometry x="1161.57" y="187.24" width="116.9289" height="116.9289" as="geometry" />
        </mxCell>
        <mxCell id="06iZtVcr8NPvHx3JyrQN-2" value="Name" style="ellipse;whiteSpace=wrap;html=1;shadow=1;" parent="1" vertex="1">
          <mxGeometry x="1586.75" y="159.43" width="85" height="22.25" as="geometry" />
        </mxCell>
        <mxCell id="06iZtVcr8NPvHx3JyrQN-3" value="" style="endArrow=none;html=1;entryX=0.461;entryY=1.058;entryDx=0;entryDy=0;entryPerimeter=0;exitX=0.75;exitY=0;exitDx=0;exitDy=0;shadow=0;" parent="1" source="mOfdOxVqDoghl0tVKRiO-93" target="06iZtVcr8NPvHx3JyrQN-2" edge="1">
          <mxGeometry width="50" height="50" relative="1" as="geometry">
            <mxPoint x="1595" y="272.37" as="sourcePoint" />
            <mxPoint x="1645" y="222.37" as="targetPoint" />
          </mxGeometry>
        </mxCell>
        <mxCell id="06iZtVcr8NPvHx3JyrQN-11" value="&lt;u&gt;ID&lt;/u&gt;" style="ellipse;whiteSpace=wrap;html=1;shadow=1;" parent="1" vertex="1">
          <mxGeometry x="268.75" y="715.8" width="69.25" height="27.1" as="geometry" />
        </mxCell>
        <mxCell id="z-IdzefdN8h7sOJLDqcr-3" value="Name" style="ellipse;whiteSpace=wrap;html=1;shadow=1;" parent="1" vertex="1">
          <mxGeometry x="1888" y="770" width="68.5" height="27.12" as="geometry" />
        </mxCell>
        <mxCell id="z-IdzefdN8h7sOJLDqcr-4" value="" style="endArrow=none;html=1;exitX=1;exitY=0;exitDx=0;exitDy=0;entryX=0;entryY=1;entryDx=0;entryDy=0;shadow=0;" parent="1" source="mOfdOxVqDoghl0tVKRiO-1" target="z-IdzefdN8h7sOJLDqcr-3" edge="1">
          <mxGeometry width="50" height="50" relative="1" as="geometry">
            <mxPoint x="1871.5" y="861.49" as="sourcePoint" />
            <mxPoint x="1921.5" y="811.49" as="targetPoint" />
          </mxGeometry>
        </mxCell>
        <mxCell id="7vURNP84gYrgIZNCSmpS-7" value="ORDERS" style="rhombus;whiteSpace=wrap;html=1;shadow=1;aspect=fixed;" parent="1" vertex="1">
          <mxGeometry x="1275" y="1339.5" width="115" height="115" as="geometry" />
        </mxCell>
        <mxCell id="7vURNP84gYrgIZNCSmpS-34" value="USER" style="rounded=0;whiteSpace=wrap;html=1;shadow=1;" parent="1" vertex="1">
          <mxGeometry x="180.75" y="624.67" width="90" height="28" as="geometry" />
        </mxCell>
        <mxCell id="7vURNP84gYrgIZNCSmpS-39" value="" style="endArrow=none;html=1;entryX=0;entryY=1;entryDx=0;entryDy=0;exitX=1;exitY=0;exitDx=0;exitDy=0;" parent="1" source="7vURNP84gYrgIZNCSmpS-34" target="mOfdOxVqDoghl0tVKRiO-60" edge="1">
          <mxGeometry width="50" height="50" relative="1" as="geometry">
            <mxPoint x="232" y="622.3" as="sourcePoint" />
            <mxPoint x="272" y="582.3" as="targetPoint" />
          </mxGeometry>
        </mxCell>
        <mxCell id="7vURNP84gYrgIZNCSmpS-40" value="" style="endArrow=none;html=1;entryX=0;entryY=0.5;entryDx=0;entryDy=0;exitX=1;exitY=0.75;exitDx=0;exitDy=0;" parent="1" source="7vURNP84gYrgIZNCSmpS-34" target="mOfdOxVqDoghl0tVKRiO-34" edge="1">
          <mxGeometry width="50" height="50" relative="1" as="geometry">
            <mxPoint x="235.75" y="634.67" as="sourcePoint" />
            <mxPoint x="277" y="574.67" as="targetPoint" />
          </mxGeometry>
        </mxCell>
        <mxCell id="7vURNP84gYrgIZNCSmpS-41" value="" style="endArrow=none;html=1;exitX=0;exitY=0.5;exitDx=0;exitDy=0;" parent="1" source="7vURNP84gYrgIZNCSmpS-34" target="mOfdOxVqDoghl0tVKRiO-65" edge="1">
          <mxGeometry width="50" height="50" relative="1" as="geometry">
            <mxPoint x="245.75" y="644.67" as="sourcePoint" />
            <mxPoint x="287" y="584.67" as="targetPoint" />
          </mxGeometry>
        </mxCell>
        <mxCell id="7vURNP84gYrgIZNCSmpS-42" value="" style="endArrow=none;html=1;exitX=0;exitY=1;exitDx=0;exitDy=0;entryX=0.955;entryY=0.254;entryDx=0;entryDy=0;entryPerimeter=0;" parent="1" source="7vURNP84gYrgIZNCSmpS-34" target="mOfdOxVqDoghl0tVKRiO-61" edge="1">
          <mxGeometry width="50" height="50" relative="1" as="geometry">
            <mxPoint x="255.75" y="654.67" as="sourcePoint" />
            <mxPoint x="107" y="664" as="targetPoint" />
          </mxGeometry>
        </mxCell>
        <mxCell id="7vURNP84gYrgIZNCSmpS-43" value="" style="endArrow=none;html=1;entryX=0;entryY=1;entryDx=0;entryDy=0;exitX=0.75;exitY=0;exitDx=0;exitDy=0;" parent="1" source="mOfdOxVqDoghl0tVKRiO-10" target="mOfdOxVqDoghl0tVKRiO-36" edge="1">
          <mxGeometry width="50" height="50" relative="1" as="geometry">
            <mxPoint x="343.75" y="708.5" as="sourcePoint" />
            <mxPoint x="385" y="648.5" as="targetPoint" />
          </mxGeometry>
        </mxCell>
        <mxCell id="7vURNP84gYrgIZNCSmpS-44" value="" style="endArrow=none;html=1;entryX=0.338;entryY=0.017;entryDx=0;entryDy=0;exitX=0.75;exitY=1;exitDx=0;exitDy=0;entryPerimeter=0;" parent="1" source="7vURNP84gYrgIZNCSmpS-34" target="06iZtVcr8NPvHx3JyrQN-11" edge="1">
          <mxGeometry width="50" height="50" relative="1" as="geometry">
            <mxPoint x="275.75" y="674.67" as="sourcePoint" />
            <mxPoint x="317" y="614.67" as="targetPoint" />
          </mxGeometry>
        </mxCell>
        <mxCell id="7vURNP84gYrgIZNCSmpS-45" value="" style="endArrow=none;html=1;entryX=0;entryY=0;entryDx=0;entryDy=0;exitX=1;exitY=1;exitDx=0;exitDy=0;" parent="1" source="7vURNP84gYrgIZNCSmpS-34" target="mOfdOxVqDoghl0tVKRiO-33" edge="1">
          <mxGeometry width="50" height="50" relative="1" as="geometry">
            <mxPoint x="285.75" y="684.67" as="sourcePoint" />
            <mxPoint x="327" y="624.67" as="targetPoint" />
          </mxGeometry>
        </mxCell>
        <mxCell id="7vURNP84gYrgIZNCSmpS-46" value="d" style="ellipse;whiteSpace=wrap;html=1;aspect=fixed;shadow=1;" parent="1" vertex="1">
          <mxGeometry x="510" y="615.67" width="48.35" height="48.35" as="geometry" />
        </mxCell>
        <mxCell id="7vURNP84gYrgIZNCSmpS-48" value="" style="shape=link;html=1;entryX=0;entryY=0.5;entryDx=0;entryDy=0;exitX=1;exitY=0.5;exitDx=0;exitDy=0;" parent="1" source="7vURNP84gYrgIZNCSmpS-34" target="7vURNP84gYrgIZNCSmpS-46" edge="1">
          <mxGeometry width="50" height="50" relative="1" as="geometry">
            <mxPoint x="450" y="772.3" as="sourcePoint" />
            <mxPoint x="500" y="722.3" as="targetPoint" />
          </mxGeometry>
        </mxCell>
        <mxCell id="7vURNP84gYrgIZNCSmpS-49" value="" style="endArrow=none;html=1;entryX=0;entryY=0.5;entryDx=0;entryDy=0;" parent="1" source="7vURNP84gYrgIZNCSmpS-52" target="mOfdOxVqDoghl0tVKRiO-10" edge="1">
          <mxGeometry width="50" height="50" relative="1" as="geometry">
            <mxPoint x="750" y="470" as="sourcePoint" />
            <mxPoint x="920" y="510" as="targetPoint" />
          </mxGeometry>
        </mxCell>
        <mxCell id="7vURNP84gYrgIZNCSmpS-51" value="" style="endArrow=none;html=1;entryX=0.5;entryY=1;entryDx=0;entryDy=0;exitX=0.5;exitY=1;exitDx=0;exitDy=0;" parent="1" source="7vURNP84gYrgIZNCSmpS-55" target="7vURNP84gYrgIZNCSmpS-46" edge="1">
          <mxGeometry width="50" height="50" relative="1" as="geometry">
            <mxPoint x="775" y="1070" as="sourcePoint" />
            <mxPoint x="1200" y="680" as="targetPoint" />
          </mxGeometry>
        </mxCell>
        <mxCell id="7vURNP84gYrgIZNCSmpS-52" value="&lt;p&gt;&lt;span style=&quot;font-size: 60px&quot;&gt;U&lt;/span&gt;&lt;/p&gt;" style="text;html=1;strokeColor=none;fillColor=none;align=center;verticalAlign=middle;whiteSpace=wrap;rounded=0;shadow=0;rotation=-90;fontFamily=Gruppo;" parent="1" vertex="1">
          <mxGeometry x="670" y="629.85" width="40" height="20" as="geometry" />
        </mxCell>
        <mxCell id="7vURNP84gYrgIZNCSmpS-54" value="" style="endArrow=none;html=1;entryX=0.5;entryY=1;entryDx=0;entryDy=0;" parent="1" target="7vURNP84gYrgIZNCSmpS-52" edge="1">
          <mxGeometry width="50" height="50" relative="1" as="geometry">
            <mxPoint x="560" y="640" as="sourcePoint" />
            <mxPoint x="650" y="640" as="targetPoint" />
          </mxGeometry>
        </mxCell>
        <mxCell id="7vURNP84gYrgIZNCSmpS-55" value="&lt;p&gt;&lt;span style=&quot;font-size: 60px&quot;&gt;U&lt;/span&gt;&lt;/p&gt;" style="text;html=1;strokeColor=none;fillColor=none;align=center;verticalAlign=middle;whiteSpace=wrap;rounded=0;shadow=0;rotation=326;fontFamily=Gruppo;" parent="1" vertex="1">
          <mxGeometry x="630" y="820.3700000000001" width="40" height="20" as="geometry" />
        </mxCell>
        <mxCell id="7vURNP84gYrgIZNCSmpS-56" value="" style="endArrow=none;html=1;exitX=0;exitY=0.5;exitDx=0;exitDy=0;entryX=0.5;entryY=1;entryDx=0;entryDy=0;" parent="1" source="mOfdOxVqDoghl0tVKRiO-15" target="7vURNP84gYrgIZNCSmpS-55" edge="1">
          <mxGeometry width="50" height="50" relative="1" as="geometry">
            <mxPoint x="775" y="1069.9999999999998" as="sourcePoint" />
            <mxPoint x="680.7279220613527" y="652.3779220613528" as="targetPoint" />
          </mxGeometry>
        </mxCell>
        <mxCell id="7vURNP84gYrgIZNCSmpS-59" value="Password" style="ellipse;whiteSpace=wrap;html=1;shadow=1;" parent="1" vertex="1">
          <mxGeometry x="170" y="711.9" width="90" height="31" as="geometry" />
        </mxCell>
        <mxCell id="7vURNP84gYrgIZNCSmpS-60" value="" style="endArrow=none;html=1;exitX=0.5;exitY=0;exitDx=0;exitDy=0;entryX=0.5;entryY=1;entryDx=0;entryDy=0;" parent="1" source="7vURNP84gYrgIZNCSmpS-59" target="7vURNP84gYrgIZNCSmpS-34" edge="1">
          <mxGeometry width="50" height="50" relative="1" as="geometry">
            <mxPoint x="272" y="679.02" as="sourcePoint" />
            <mxPoint x="322" y="629.02" as="targetPoint" />
          </mxGeometry>
        </mxCell>
        <mxCell id="7vURNP84gYrgIZNCSmpS-65" value="ADMIN" style="rounded=0;whiteSpace=wrap;html=1;shadow=1;" parent="1" vertex="1">
          <mxGeometry x="797" y="230.70000000000002" width="120" height="30" as="geometry" />
        </mxCell>
        <mxCell id="7vURNP84gYrgIZNCSmpS-74" value="&lt;p style=&quot;font-size: 52px;&quot;&gt;&lt;span style=&quot;font-size: 52px;&quot;&gt;U&lt;/span&gt;&lt;/p&gt;" style="text;html=1;strokeColor=none;fillColor=none;align=center;verticalAlign=middle;whiteSpace=wrap;rounded=0;shadow=0;rotation=216;fontFamily=Gruppo;fontStyle=0;FType=g;fontSize=52;" parent="1" vertex="1">
          <mxGeometry x="630" y="442.37" width="40" height="20" as="geometry" />
        </mxCell>
        <mxCell id="7vURNP84gYrgIZNCSmpS-75" value="" style="endArrow=none;html=1;exitX=0.5;exitY=0;exitDx=0;exitDy=0;entryX=0.5;entryY=1;entryDx=0;entryDy=0;" parent="1" source="7vURNP84gYrgIZNCSmpS-46" target="7vURNP84gYrgIZNCSmpS-74" edge="1">
          <mxGeometry width="50" height="50" relative="1" as="geometry">
            <mxPoint x="620" y="560" as="sourcePoint" />
            <mxPoint x="670" y="510" as="targetPoint" />
          </mxGeometry>
        </mxCell>
        <mxCell id="7vURNP84gYrgIZNCSmpS-76" value="" style="endArrow=none;html=1;exitX=0.5;exitY=1;exitDx=0;exitDy=0;entryX=0;entryY=0.5;entryDx=0;entryDy=0;" parent="1" source="7vURNP84gYrgIZNCSmpS-74" target="7vURNP84gYrgIZNCSmpS-65" edge="1">
          <mxGeometry width="50" height="50" relative="1" as="geometry">
            <mxPoint x="640" y="330" as="sourcePoint" />
            <mxPoint x="690" y="280" as="targetPoint" />
            <Array as="points" />
          </mxGeometry>
        </mxCell>
        <mxCell id="vk8bfzoFHFMnoET7GKUU-8" value="" style="endArrow=none;html=1;rounded=0;align=left;exitX=0.5;exitY=0;exitDx=0;exitDy=0;entryX=0.5;entryY=1;entryDx=0;entryDy=0;" parent="1" source="mOfdOxVqDoghl0tVKRiO-15" target="z-NwZpaRfGPs4gkHxWXv-39" edge="1">
          <mxGeometry relative="1" as="geometry">
            <mxPoint x="935" y="1076" as="sourcePoint" />
            <mxPoint x="1588" y="990" as="targetPoint" />
            <Array as="points" />
          </mxGeometry>
        </mxCell>
        <mxCell id="vk8bfzoFHFMnoET7GKUU-9" value="1&amp;nbsp;&amp;nbsp;" style="resizable=0;html=1;align=right;verticalAlign=top;" parent="vk8bfzoFHFMnoET7GKUU-8" connectable="0" vertex="1">
          <mxGeometry x="1" relative="1" as="geometry" />
        </mxCell>
        <mxCell id="vk8bfzoFHFMnoET7GKUU-10" value="" style="shape=link;html=1;rounded=0;exitX=0;exitY=0.5;exitDx=0;exitDy=0;entryX=1;entryY=0.5;entryDx=0;entryDy=0;" parent="1" source="mOfdOxVqDoghl0tVKRiO-55" target="z-NwZpaRfGPs4gkHxWXv-39" edge="1">
          <mxGeometry relative="1" as="geometry">
            <mxPoint x="1723" y="871.9999999999998" as="sourcePoint" />
            <mxPoint x="1581.5" y="871.9999999999998" as="targetPoint" />
            <Array as="points" />
          </mxGeometry>
        </mxCell>
        <mxCell id="vk8bfzoFHFMnoET7GKUU-11" value="N" style="resizable=0;html=1;align=left;verticalAlign=bottom;horizontal=1;" parent="vk8bfzoFHFMnoET7GKUU-10" connectable="0" vertex="1">
          <mxGeometry x="1" relative="1" as="geometry" />
        </mxCell>
        <mxCell id="vk8bfzoFHFMnoET7GKUU-21" value="" style="shape=link;html=1;rounded=0;align=left;entryX=0;entryY=0.5;entryDx=0;entryDy=0;exitX=0.5;exitY=0;exitDx=0;exitDy=0;" parent="1" source="mOfdOxVqDoghl0tVKRiO-10" target="z-NwZpaRfGPs4gkHxWXv-11" edge="1">
          <mxGeometry relative="1" as="geometry">
            <mxPoint x="860" y="559.9599999999999" as="sourcePoint" />
            <mxPoint x="1168" y="359.11" as="targetPoint" />
            <Array as="points">
              <mxPoint x="860" y="423" />
            </Array>
          </mxGeometry>
        </mxCell>
        <mxCell id="vk8bfzoFHFMnoET7GKUU-22" value="N" style="resizable=0;html=1;align=right;verticalAlign=bottom;" parent="vk8bfzoFHFMnoET7GKUU-21" connectable="0" vertex="1">
          <mxGeometry x="1" relative="1" as="geometry" />
        </mxCell>
        <mxCell id="vk8bfzoFHFMnoET7GKUU-24" value="" style="endArrow=none;html=1;rounded=0;align=left;exitX=0.25;exitY=1;exitDx=0;exitDy=0;entryX=1;entryY=0.5;entryDx=0;entryDy=0;" parent="1" source="mOfdOxVqDoghl0tVKRiO-93" target="z-NwZpaRfGPs4gkHxWXv-11" edge="1">
          <mxGeometry relative="1" as="geometry">
            <mxPoint x="1557.5" y="199.14999999999998" as="sourcePoint" />
            <mxPoint x="1530" y="345.11" as="targetPoint" />
            <Array as="points">
              <mxPoint x="1558" y="423" />
            </Array>
          </mxGeometry>
        </mxCell>
        <mxCell id="vk8bfzoFHFMnoET7GKUU-25" value="1" style="resizable=0;html=1;align=left;verticalAlign=bottom;" parent="vk8bfzoFHFMnoET7GKUU-24" connectable="0" vertex="1">
          <mxGeometry x="1" relative="1" as="geometry" />
        </mxCell>
        <mxCell id="vk8bfzoFHFMnoET7GKUU-26" value="" style="shape=link;html=1;rounded=0;align=left;entryX=0.5;entryY=1;entryDx=0;entryDy=0;exitX=0.5;exitY=0;exitDx=0;exitDy=0;" parent="1" source="mOfdOxVqDoghl0tVKRiO-55" target="z-NwZpaRfGPs4gkHxWXv-17" edge="1">
          <mxGeometry relative="1" as="geometry">
            <mxPoint x="1608" y="660" as="sourcePoint" />
            <mxPoint x="1768" y="660" as="targetPoint" />
          </mxGeometry>
        </mxCell>
        <mxCell id="vk8bfzoFHFMnoET7GKUU-27" value="N&amp;nbsp;&amp;nbsp;" style="resizable=0;html=1;align=right;verticalAlign=top;" parent="vk8bfzoFHFMnoET7GKUU-26" connectable="0" vertex="1">
          <mxGeometry x="1" relative="1" as="geometry" />
        </mxCell>
        <mxCell id="vk8bfzoFHFMnoET7GKUU-28" value="" style="html=1;rounded=0;align=left;exitX=0.5;exitY=1;exitDx=0;exitDy=0;endArrow=none;endFill=0;entryX=1;entryY=0.5;entryDx=0;entryDy=0;" parent="1" source="mOfdOxVqDoghl0tVKRiO-93" target="z-NwZpaRfGPs4gkHxWXv-17" edge="1">
          <mxGeometry relative="1" as="geometry">
            <mxPoint x="1590" y="490" as="sourcePoint" />
            <mxPoint x="1243" y="570" as="targetPoint" />
            <Array as="points">
              <mxPoint x="1580" y="610" />
            </Array>
          </mxGeometry>
        </mxCell>
        <mxCell id="vk8bfzoFHFMnoET7GKUU-29" value="1&amp;nbsp;&amp;nbsp;" style="resizable=0;html=1;align=left;verticalAlign=bottom;" parent="vk8bfzoFHFMnoET7GKUU-28" connectable="0" vertex="1">
          <mxGeometry x="1" relative="1" as="geometry" />
        </mxCell>
        <mxCell id="vk8bfzoFHFMnoET7GKUU-34" value="" style="html=1;rounded=0;align=left;entryX=1;entryY=0.5;entryDx=0;entryDy=0;exitX=0;exitY=0.5;exitDx=0;exitDy=0;endArrow=none;endFill=0;" parent="1" source="mOfdOxVqDoghl0tVKRiO-93" target="z-NwZpaRfGPs4gkHxWXv-78" edge="1">
          <mxGeometry relative="1" as="geometry">
            <mxPoint x="1330" y="240" as="sourcePoint" />
            <mxPoint x="1490" y="240" as="targetPoint" />
          </mxGeometry>
        </mxCell>
        <mxCell id="vk8bfzoFHFMnoET7GKUU-35" value="1" style="resizable=0;html=1;align=left;verticalAlign=bottom;" parent="vk8bfzoFHFMnoET7GKUU-34" connectable="0" vertex="1">
          <mxGeometry x="1" relative="1" as="geometry" />
        </mxCell>
        <mxCell id="vk8bfzoFHFMnoET7GKUU-41" value="" style="endArrow=none;html=1;rounded=0;align=left;exitX=0.25;exitY=1;exitDx=0;exitDy=0;entryX=0;entryY=0.5;entryDx=0;entryDy=0;" parent="1" source="mOfdOxVqDoghl0tVKRiO-15" target="7vURNP84gYrgIZNCSmpS-7" edge="1">
          <mxGeometry relative="1" as="geometry">
            <mxPoint x="1360" y="1090" as="sourcePoint" />
            <mxPoint x="1472" y="1465" as="targetPoint" />
            <Array as="points">
              <mxPoint x="831" y="1397" />
            </Array>
          </mxGeometry>
        </mxCell>
        <mxCell id="vk8bfzoFHFMnoET7GKUU-42" value="N" style="resizable=0;html=1;align=right;verticalAlign=bottom;" parent="vk8bfzoFHFMnoET7GKUU-41" connectable="0" vertex="1">
          <mxGeometry x="1" relative="1" as="geometry" />
        </mxCell>
        <mxCell id="-Jq1AfKjN5yx9KIEYnPa-1" value="&quot;Customer&quot;" style="text;html=1;strokeColor=none;fillColor=none;align=center;verticalAlign=middle;whiteSpace=wrap;rounded=0;rotation=55;" parent="1" vertex="1">
          <mxGeometry x="570" y="758.91" width="40" height="20" as="geometry" />
        </mxCell>
        <mxCell id="-Jq1AfKjN5yx9KIEYnPa-2" value="&quot;Employee&quot;" style="text;html=1;strokeColor=none;fillColor=none;align=center;verticalAlign=middle;whiteSpace=wrap;rounded=0;" parent="1" vertex="1">
          <mxGeometry x="598.35" y="616.04" width="40" height="20" as="geometry" />
        </mxCell>
        <mxCell id="-Jq1AfKjN5yx9KIEYnPa-4" value="&quot;Admin&quot;" style="text;html=1;strokeColor=none;fillColor=none;align=center;verticalAlign=middle;whiteSpace=wrap;rounded=0;rotation=-55;" parent="1" vertex="1">
          <mxGeometry x="570" y="504.3" width="40" height="20" as="geometry" />
        </mxCell>
        <mxCell id="-Jq1AfKjN5yx9KIEYnPa-5" value="&quot;User_Type&quot;" style="text;html=1;strokeColor=none;fillColor=none;align=center;verticalAlign=middle;whiteSpace=wrap;rounded=0;" parent="1" vertex="1">
          <mxGeometry x="430" y="614.3" width="40" height="20" as="geometry" />
        </mxCell>
        <mxCell id="-Jq1AfKjN5yx9KIEYnPa-7" value="Birth_Date" style="ellipse;whiteSpace=wrap;html=1;shadow=1;" parent="1" vertex="1">
          <mxGeometry x="710" y="183.92999999999995" width="130" height="30" as="geometry" />
        </mxCell>
        <mxCell id="-Jq1AfKjN5yx9KIEYnPa-9" value="" style="endArrow=none;html=1;entryX=0.5;entryY=1;entryDx=0;entryDy=0;exitX=0;exitY=0;exitDx=0;exitDy=0;" parent="1" source="7vURNP84gYrgIZNCSmpS-65" target="-Jq1AfKjN5yx9KIEYnPa-7" edge="1">
          <mxGeometry width="50" height="50" relative="1" as="geometry">
            <mxPoint x="550" y="260" as="sourcePoint" />
            <mxPoint x="600" y="210" as="targetPoint" />
          </mxGeometry>
        </mxCell>
        <mxCell id="-Jq1AfKjN5yx9KIEYnPa-10" value="Fiscal_Code" style="ellipse;whiteSpace=wrap;html=1;shadow=1;fontStyle=4" parent="1" vertex="1">
          <mxGeometry x="900" y="183.92999999999995" width="110" height="30" as="geometry" />
        </mxCell>
        <mxCell id="-Jq1AfKjN5yx9KIEYnPa-11" value="" style="endArrow=none;html=1;entryX=0.5;entryY=1;entryDx=0;entryDy=0;exitX=1;exitY=0;exitDx=0;exitDy=0;" parent="1" source="7vURNP84gYrgIZNCSmpS-65" target="-Jq1AfKjN5yx9KIEYnPa-10" edge="1">
          <mxGeometry width="50" height="50" relative="1" as="geometry">
            <mxPoint x="940" y="320" as="sourcePoint" />
            <mxPoint x="990" y="270" as="targetPoint" />
          </mxGeometry>
        </mxCell>
        <mxCell id="XrFzkQ957bnb_zdma56I-2" value="Insert_Date" style="ellipse;whiteSpace=wrap;html=1;shadow=1;" parent="1" vertex="1">
          <mxGeometry x="1928" y="870.6500000000002" width="110" height="34" as="geometry" />
        </mxCell>
        <mxCell id="XrFzkQ957bnb_zdma56I-3" value="" style="endArrow=none;html=1;exitX=1;exitY=0.75;exitDx=0;exitDy=0;entryX=0;entryY=0.5;entryDx=0;entryDy=0;" parent="1" source="mOfdOxVqDoghl0tVKRiO-1" target="XrFzkQ957bnb_zdma56I-2" edge="1">
          <mxGeometry width="50" height="50" relative="1" as="geometry">
            <mxPoint x="1862.5" y="941.74" as="sourcePoint" />
            <mxPoint x="1901.5" y="879.74" as="targetPoint" />
          </mxGeometry>
        </mxCell>
        <mxCell id="XrFzkQ957bnb_zdma56I-4" value="Order_Date" style="ellipse;whiteSpace=wrap;html=1;shadow=1;" parent="1" vertex="1">
          <mxGeometry x="1371.75" y="1330" width="102" height="28" as="geometry" />
        </mxCell>
        <mxCell id="XrFzkQ957bnb_zdma56I-5" value="" style="endArrow=none;html=1;" parent="1" source="7vURNP84gYrgIZNCSmpS-7" target="XrFzkQ957bnb_zdma56I-4" edge="1">
          <mxGeometry width="50" height="50" relative="1" as="geometry">
            <mxPoint x="2145" y="970" as="sourcePoint" />
            <mxPoint x="2195" y="920" as="targetPoint" />
          </mxGeometry>
        </mxCell>
        <mxCell id="XrFzkQ957bnb_zdma56I-12" value="Pic_Name" style="ellipse;whiteSpace=wrap;html=1;shadow=1;" parent="1" vertex="1">
          <mxGeometry x="1657" y="930.0000000000001" width="101.5" height="33.9" as="geometry" />
        </mxCell>
        <mxCell id="XrFzkQ957bnb_zdma56I-13" value="" style="endArrow=none;html=1;exitX=0.5;exitY=0;exitDx=0;exitDy=0;entryX=0;entryY=1;entryDx=0;entryDy=0;" parent="1" source="XrFzkQ957bnb_zdma56I-12" target="mOfdOxVqDoghl0tVKRiO-1" edge="1">
          <mxGeometry width="50" height="50" relative="1" as="geometry">
            <mxPoint x="1632.5" y="1041.74" as="sourcePoint" />
            <mxPoint x="1682.5" y="991.74" as="targetPoint" />
          </mxGeometry>
        </mxCell>
        <mxCell id="wAOh5u2bHxW-0nYntJ-o-1" value="Showcase" style="ellipse;whiteSpace=wrap;html=1;shadow=1;" parent="1" vertex="1">
          <mxGeometry x="1805.2299999999996" y="747.8299999999998" width="82.77" height="29.59" as="geometry" />
        </mxCell>
        <mxCell id="wAOh5u2bHxW-0nYntJ-o-2" value="" style="endArrow=none;html=1;entryX=0.5;entryY=1;entryDx=0;entryDy=0;exitX=0.75;exitY=0;exitDx=0;exitDy=0;" parent="1" source="mOfdOxVqDoghl0tVKRiO-1" target="wAOh5u2bHxW-0nYntJ-o-1" edge="1">
          <mxGeometry width="50" height="50" relative="1" as="geometry">
            <mxPoint x="1832.5" y="861.74" as="sourcePoint" />
            <mxPoint x="1882.5" y="811.74" as="targetPoint" />
          </mxGeometry>
        </mxCell>
        <mxCell id="wAOh5u2bHxW-0nYntJ-o-5" value="Blocked" style="ellipse;whiteSpace=wrap;html=1;shadow=1;" parent="1" vertex="1">
          <mxGeometry x="910" y="1004" width="90" height="32" as="geometry" />
        </mxCell>
        <mxCell id="wAOh5u2bHxW-0nYntJ-o-6" value="" style="endArrow=none;html=1;entryX=0.5;entryY=1;entryDx=0;entryDy=0;exitX=1;exitY=0;exitDx=0;exitDy=0;" parent="1" source="mOfdOxVqDoghl0tVKRiO-15" target="wAOh5u2bHxW-0nYntJ-o-5" edge="1">
          <mxGeometry width="50" height="50" relative="1" as="geometry">
            <mxPoint x="888" y="1061" as="sourcePoint" />
            <mxPoint x="920" y="1030" as="targetPoint" />
          </mxGeometry>
        </mxCell>
        <mxCell id="hEqI_E-h3wd5EMZh7YxB-1" value="Category" style="ellipse;whiteSpace=wrap;html=1;shadow=1;" parent="1" vertex="1">
          <mxGeometry x="1914.77" y="920.51" width="86" height="29.32" as="geometry" />
        </mxCell>
        <mxCell id="hEqI_E-h3wd5EMZh7YxB-2" value="" style="endArrow=none;html=1;entryX=0;entryY=0;entryDx=0;entryDy=0;exitX=1;exitY=1;exitDx=0;exitDy=0;" parent="1" source="mOfdOxVqDoghl0tVKRiO-1" target="hEqI_E-h3wd5EMZh7YxB-1" edge="1">
          <mxGeometry width="50" height="50" relative="1" as="geometry">
            <mxPoint x="1862.5" y="1001.74" as="sourcePoint" />
            <mxPoint x="1912.5" y="951.74" as="targetPoint" />
          </mxGeometry>
        </mxCell>
        <mxCell id="irY9EH-7kdnp1c6FJjNx-1" value="Num_Ordered_Product" style="ellipse;whiteSpace=wrap;html=1;align=center;dashed=1;shadow=1;" parent="1" vertex="1">
          <mxGeometry x="917" y="1104" width="150" height="40" as="geometry" />
        </mxCell>
        <mxCell id="irY9EH-7kdnp1c6FJjNx-2" value="" style="endArrow=none;html=1;entryX=0;entryY=0;entryDx=0;entryDy=0;exitX=1;exitY=1;exitDx=0;exitDy=0;" parent="1" source="mOfdOxVqDoghl0tVKRiO-15" target="irY9EH-7kdnp1c6FJjNx-1" edge="1">
          <mxGeometry width="50" height="50" relative="1" as="geometry">
            <mxPoint x="790" y="1190" as="sourcePoint" />
            <mxPoint x="840" y="1140" as="targetPoint" />
          </mxGeometry>
        </mxCell>
        <mxCell id="6IseBPpCV_1iwrkVNZEt-1" value="Num_Booked_Reservation" style="ellipse;whiteSpace=wrap;html=1;align=center;dashed=1;shadow=1;" parent="1" vertex="1">
          <mxGeometry x="638.35" y="1104" width="168" height="40" as="geometry" />
        </mxCell>
        <mxCell id="6IseBPpCV_1iwrkVNZEt-2" value="" style="endArrow=none;html=1;entryX=1;entryY=0;entryDx=0;entryDy=0;exitX=0;exitY=1;exitDx=0;exitDy=0;" parent="1" source="mOfdOxVqDoghl0tVKRiO-15" target="6IseBPpCV_1iwrkVNZEt-1" edge="1">
          <mxGeometry width="50" height="50" relative="1" as="geometry">
            <mxPoint x="800" y="1091" as="sourcePoint" />
            <mxPoint x="870" y="1140" as="targetPoint" />
          </mxGeometry>
        </mxCell>
        <mxCell id="ARcKCZJJov3iMHx4yaQP-2" value="Opening_Time" style="ellipse;whiteSpace=wrap;html=1;shadow=1;" parent="1" vertex="1">
          <mxGeometry x="1646.75" y="194.73000000000002" width="95.5" height="31.55" as="geometry" />
        </mxCell>
        <mxCell id="ARcKCZJJov3iMHx4yaQP-3" value="Closing_Time" style="ellipse;whiteSpace=wrap;html=1;shadow=1;" parent="1" vertex="1">
          <mxGeometry x="1602.25" y="289.8299999999999" width="95" height="29.13" as="geometry" />
        </mxCell>
        <mxCell id="ARcKCZJJov3iMHx4yaQP-4" value="" style="endArrow=none;html=1;entryX=0;entryY=0.5;entryDx=0;entryDy=0;exitX=1;exitY=0;exitDx=0;exitDy=0;" parent="1" source="mOfdOxVqDoghl0tVKRiO-93" target="ARcKCZJJov3iMHx4yaQP-2" edge="1">
          <mxGeometry width="50" height="50" relative="1" as="geometry">
            <mxPoint x="1620" y="280" as="sourcePoint" />
            <mxPoint x="1670" y="230" as="targetPoint" />
          </mxGeometry>
        </mxCell>
        <mxCell id="ARcKCZJJov3iMHx4yaQP-5" value="" style="endArrow=none;html=1;exitX=1;exitY=1;exitDx=0;exitDy=0;entryX=0.5;entryY=0;entryDx=0;entryDy=0;" parent="1" source="mOfdOxVqDoghl0tVKRiO-93" target="ARcKCZJJov3iMHx4yaQP-3" edge="1">
          <mxGeometry width="50" height="50" relative="1" as="geometry">
            <mxPoint x="1680" y="390" as="sourcePoint" />
            <mxPoint x="1730" y="340" as="targetPoint" />
          </mxGeometry>
        </mxCell>
        <mxCell id="D9wtWctI_J-qQWphaY6E-1" value="Deleted" style="ellipse;whiteSpace=wrap;html=1;shadow=1;" parent="1" vertex="1">
          <mxGeometry x="80" y="698.92" width="90" height="31" as="geometry" />
        </mxCell>
        <mxCell id="D9wtWctI_J-qQWphaY6E-2" value="" style="endArrow=none;html=1;entryX=0.25;entryY=1;entryDx=0;entryDy=0;exitX=1;exitY=0;exitDx=0;exitDy=0;" parent="1" source="D9wtWctI_J-qQWphaY6E-1" target="7vURNP84gYrgIZNCSmpS-34" edge="1">
          <mxGeometry width="50" height="50" relative="1" as="geometry">
            <mxPoint x="120" y="830" as="sourcePoint" />
            <mxPoint x="170" y="780" as="targetPoint" />
          </mxGeometry>
        </mxCell>
        <mxCell id="D9wtWctI_J-qQWphaY6E-3" value="IS_Admin" style="ellipse;whiteSpace=wrap;html=1;shadow=1;fillColor=#f8cecc;strokeColor=#b85450;" parent="1" vertex="1">
          <mxGeometry x="80" y="562.3199999999999" width="90" height="31" as="geometry" />
        </mxCell>
        <mxCell id="D9wtWctI_J-qQWphaY6E-4" value="Is_Employee" style="ellipse;whiteSpace=wrap;html=1;shadow=1;fillColor=#f8cecc;strokeColor=#b85450;" parent="1" vertex="1">
          <mxGeometry x="240" y="553.3" width="90" height="31" as="geometry" />
        </mxCell>
        <mxCell id="D9wtWctI_J-qQWphaY6E-5" value="Is_Customer" style="ellipse;whiteSpace=wrap;html=1;shadow=1;fillColor=#f8cecc;strokeColor=#b85450;" parent="1" vertex="1">
          <mxGeometry x="140" y="528.62" width="110" height="33.7" as="geometry" />
        </mxCell>
        <mxCell id="D9wtWctI_J-qQWphaY6E-9" value="Deleted_Reason" style="ellipse;whiteSpace=wrap;html=1;shadow=1;" parent="1" vertex="1">
          <mxGeometry x="1261" y="781.6200000000001" width="124.25" height="37.9" as="geometry" />
        </mxCell>
        <mxCell id="D9wtWctI_J-qQWphaY6E-10" value="" style="endArrow=none;html=1;exitX=0;exitY=1;exitDx=0;exitDy=0;shadow=0;" parent="1" source="D9wtWctI_J-qQWphaY6E-9" target="mOfdOxVqDoghl0tVKRiO-55" edge="1">
          <mxGeometry width="50" height="50" relative="1" as="geometry">
            <mxPoint x="1660.25" y="948.22" as="sourcePoint" />
            <mxPoint x="1535" y="903" as="targetPoint" />
          </mxGeometry>
        </mxCell>
        <mxCell id="xBFPVh3Kzn-VsAPXU1Ro-1" value="Deleted" style="ellipse;whiteSpace=wrap;html=1;shadow=1;" parent="1" vertex="1">
          <mxGeometry x="1268" y="879.2399999999999" width="80" height="38.86" as="geometry" />
        </mxCell>
        <mxCell id="xBFPVh3Kzn-VsAPXU1Ro-2" value="" style="endArrow=none;html=1;exitX=0;exitY=0;exitDx=0;exitDy=0;entryX=0.75;entryY=1;entryDx=0;entryDy=0;" parent="1" source="xBFPVh3Kzn-VsAPXU1Ro-1" target="mOfdOxVqDoghl0tVKRiO-55" edge="1">
          <mxGeometry width="50" height="50" relative="1" as="geometry">
            <mxPoint x="1608" y="1072" as="sourcePoint" />
            <mxPoint x="1658" y="1022" as="targetPoint" />
          </mxGeometry>
        </mxCell>
        <mxCell id="xBFPVh3Kzn-VsAPXU1Ro-3" value="" style="endArrow=none;html=1;entryX=0.5;entryY=1;entryDx=0;entryDy=0;exitX=0.5;exitY=0;exitDx=0;exitDy=0;" parent="1" source="7vURNP84gYrgIZNCSmpS-34" target="D9wtWctI_J-qQWphaY6E-5" edge="1">
          <mxGeometry width="50" height="50" relative="1" as="geometry">
            <mxPoint x="280.7499999999998" y="634.6700000000001" as="sourcePoint" />
            <mxPoint x="325.88302306814967" y="619.844576390325" as="targetPoint" />
          </mxGeometry>
        </mxCell>
        <mxCell id="xBFPVh3Kzn-VsAPXU1Ro-4" value="" style="endArrow=none;html=1;entryX=0.5;entryY=1;entryDx=0;entryDy=0;exitX=0.75;exitY=0;exitDx=0;exitDy=0;" parent="1" source="7vURNP84gYrgIZNCSmpS-34" target="D9wtWctI_J-qQWphaY6E-4" edge="1">
          <mxGeometry width="50" height="50" relative="1" as="geometry">
            <mxPoint x="258.25" y="634.6700000000001" as="sourcePoint" />
            <mxPoint x="291.3499999999999" y="585.1768999999999" as="targetPoint" />
          </mxGeometry>
        </mxCell>
        <mxCell id="xBFPVh3Kzn-VsAPXU1Ro-5" value="" style="endArrow=none;html=1;entryX=1;entryY=1;entryDx=0;entryDy=0;exitX=0.25;exitY=0;exitDx=0;exitDy=0;" parent="1" source="7vURNP84gYrgIZNCSmpS-34" target="D9wtWctI_J-qQWphaY6E-3" edge="1">
          <mxGeometry width="50" height="50" relative="1" as="geometry">
            <mxPoint x="268.25" y="644.6700000000001" as="sourcePoint" />
            <mxPoint x="301.3499999999999" y="595.1768999999999" as="targetPoint" />
          </mxGeometry>
        </mxCell>
        <mxCell id="xBFPVh3Kzn-VsAPXU1Ro-6" value="Deleted" style="ellipse;whiteSpace=wrap;html=1;shadow=1;" parent="1" vertex="1">
          <mxGeometry x="1914.77" y="811.62" width="93" height="24.81" as="geometry" />
        </mxCell>
        <mxCell id="xBFPVh3Kzn-VsAPXU1Ro-7" value="" style="endArrow=none;html=1;exitX=1;exitY=0.25;exitDx=0;exitDy=0;entryX=0;entryY=0.5;entryDx=0;entryDy=0;" parent="1" source="mOfdOxVqDoghl0tVKRiO-1" target="xBFPVh3Kzn-VsAPXU1Ro-6" edge="1">
          <mxGeometry width="50" height="50" relative="1" as="geometry">
            <mxPoint x="1854" y="865.6500000000001" as="sourcePoint" />
            <mxPoint x="1912.499999999989" y="905.1100000000004" as="targetPoint" />
          </mxGeometry>
        </mxCell>
        <mxCell id="pAP4_yveE0BskdrrooYN-1" value="SELL" style="rhombus;whiteSpace=wrap;html=1;shadow=1;aspect=fixed;" parent="1" vertex="1">
          <mxGeometry x="1736.5" y="492.29" width="115" height="115.01" as="geometry" />
        </mxCell>
        <mxCell id="pAP4_yveE0BskdrrooYN-4" value="" style="html=1;rounded=0;align=left;exitX=1;exitY=0.5;exitDx=0;exitDy=0;endArrow=none;endFill=0;entryX=0.5;entryY=0;entryDx=0;entryDy=0;" parent="1" source="mOfdOxVqDoghl0tVKRiO-93" target="pAP4_yveE0BskdrrooYN-1" edge="1">
          <mxGeometry relative="1" as="geometry">
            <mxPoint x="1742.25" y="239.99999999999997" as="sourcePoint" />
            <mxPoint x="1850" y="440" as="targetPoint" />
            <Array as="points">
              <mxPoint x="1794" y="246" />
            </Array>
          </mxGeometry>
        </mxCell>
        <mxCell id="pAP4_yveE0BskdrrooYN-5" value="1&amp;nbsp;&amp;nbsp;" style="resizable=0;html=1;align=right;verticalAlign=bottom;" parent="pAP4_yveE0BskdrrooYN-4" connectable="0" vertex="1">
          <mxGeometry x="1" relative="1" as="geometry" />
        </mxCell>
        <mxCell id="pAP4_yveE0BskdrrooYN-7" value="" style="shape=link;html=1;rounded=0;align=left;entryX=0.5;entryY=1;entryDx=0;entryDy=0;exitX=0.5;exitY=0;exitDx=0;exitDy=0;" parent="1" source="mOfdOxVqDoghl0tVKRiO-1" target="pAP4_yveE0BskdrrooYN-1" edge="1">
          <mxGeometry relative="1" as="geometry">
            <mxPoint x="2088" y="800" as="sourcePoint" />
            <mxPoint x="1934.63" y="604.3200000000002" as="targetPoint" />
            <Array as="points" />
          </mxGeometry>
        </mxCell>
        <mxCell id="pAP4_yveE0BskdrrooYN-8" value="N&amp;nbsp;&amp;nbsp;" style="resizable=0;html=1;align=right;verticalAlign=top;" parent="pAP4_yveE0BskdrrooYN-7" connectable="0" vertex="1">
          <mxGeometry x="1" relative="1" as="geometry" />
        </mxCell>
        <mxCell id="pAP4_yveE0BskdrrooYN-9" value="" style="shape=link;html=1;rounded=0;exitX=1;exitY=0.5;exitDx=0;exitDy=0;entryX=0;entryY=0.5;entryDx=0;entryDy=0;" parent="1" source="7vURNP84gYrgIZNCSmpS-65" target="z-NwZpaRfGPs4gkHxWXv-78" edge="1">
          <mxGeometry relative="1" as="geometry">
            <mxPoint x="1142.4999999999998" y="280.4399999999998" as="sourcePoint" />
            <mxPoint x="975.8600000000001" y="280.4399999999998" as="targetPoint" />
            <Array as="points" />
          </mxGeometry>
        </mxCell>
        <mxCell id="pAP4_yveE0BskdrrooYN-10" value="1" style="resizable=0;html=1;align=right;verticalAlign=bottom;horizontal=1;" parent="pAP4_yveE0BskdrrooYN-9" connectable="0" vertex="1">
          <mxGeometry x="1" relative="1" as="geometry" />
        </mxCell>
        <mxCell id="pAP4_yveE0BskdrrooYN-27" value="Slot" style="ellipse;whiteSpace=wrap;html=1;shadow=1;" parent="1" vertex="1">
          <mxGeometry x="1404" y="260.69999999999993" width="95" height="29.13" as="geometry" />
        </mxCell>
        <mxCell id="pAP4_yveE0BskdrrooYN-28" value="" style="endArrow=none;html=1;exitX=0;exitY=0.75;exitDx=0;exitDy=0;" parent="1" source="mOfdOxVqDoghl0tVKRiO-93" target="pAP4_yveE0BskdrrooYN-27" edge="1">
          <mxGeometry width="50" height="50" relative="1" as="geometry">
            <mxPoint x="1635" y="274.03999999999996" as="sourcePoint" />
            <mxPoint x="1653.4500448898839" y="289.4497502303162" as="targetPoint" />
          </mxGeometry>
        </mxCell>
        <mxCell id="gDiWdObR12Vtj-IBZLCE-10" value="Status" style="ellipse;whiteSpace=wrap;html=1;shadow=1;" parent="1" vertex="1">
          <mxGeometry x="1175" y="1440" width="100" height="30" as="geometry" />
        </mxCell>
        <mxCell id="gDiWdObR12Vtj-IBZLCE-13" value="" style="endArrow=none;html=1;entryX=1;entryY=0;entryDx=0;entryDy=0;exitX=0;exitY=1;exitDx=0;exitDy=0;" parent="1" source="7vURNP84gYrgIZNCSmpS-7" target="gDiWdObR12Vtj-IBZLCE-10" edge="1">
          <mxGeometry width="50" height="50" relative="1" as="geometry">
            <mxPoint x="1821" y="1380" as="sourcePoint" />
            <mxPoint x="1625" y="1300" as="targetPoint" />
          </mxGeometry>
        </mxCell>
        <mxCell id="UZRTOB7L_TyUyEEr05dN-1" value="Sell_Date" style="ellipse;whiteSpace=wrap;html=1;shadow=1;" parent="1" vertex="1">
          <mxGeometry x="1193.5" y="1339.5" width="102" height="28" as="geometry" />
        </mxCell>
        <mxCell id="UZRTOB7L_TyUyEEr05dN-2" value="" style="endArrow=none;html=1;exitX=1;exitY=1;exitDx=0;exitDy=0;" parent="1" source="UZRTOB7L_TyUyEEr05dN-1" target="7vURNP84gYrgIZNCSmpS-7" edge="1">
          <mxGeometry width="50" height="50" relative="1" as="geometry">
            <mxPoint x="1371.25" y="1378.25" as="sourcePoint" />
            <mxPoint x="1548.3553390593274" y="1355.6066017177982" as="targetPoint" />
          </mxGeometry>
        </mxCell>
        <mxCell id="UZRTOB7L_TyUyEEr05dN-3" value="Price_tot" style="ellipse;whiteSpace=wrap;html=1;shadow=1;" parent="1" vertex="1">
          <mxGeometry x="1282.5" y="1480" width="102" height="28" as="geometry" />
        </mxCell>
        <mxCell id="UZRTOB7L_TyUyEEr05dN-4" value="" style="endArrow=none;html=1;exitX=0.5;exitY=0;exitDx=0;exitDy=0;entryX=0.5;entryY=1;entryDx=0;entryDy=0;" parent="1" source="UZRTOB7L_TyUyEEr05dN-3" target="7vURNP84gYrgIZNCSmpS-7" edge="1">
          <mxGeometry width="50" height="50" relative="1" as="geometry">
            <mxPoint x="1261.5624458405246" y="1345.3994949366147" as="sourcePoint" />
            <mxPoint x="1309.8497072322743" y="1382.1502927677257" as="targetPoint" />
          </mxGeometry>
        </mxCell>
        <mxCell id="UZRTOB7L_TyUyEEr05dN-9" value="Deleted" style="ellipse;whiteSpace=wrap;html=1;shadow=1;" parent="1" vertex="1">
          <mxGeometry x="1395" y="1430" width="90" height="31" as="geometry" />
        </mxCell>
        <mxCell id="UZRTOB7L_TyUyEEr05dN-10" value="" style="endArrow=none;html=1;exitX=1;exitY=1;exitDx=0;exitDy=0;entryX=0;entryY=0.5;entryDx=0;entryDy=0;" parent="1" source="7vURNP84gYrgIZNCSmpS-7" target="UZRTOB7L_TyUyEEr05dN-9" edge="1">
          <mxGeometry width="50" height="50" relative="1" as="geometry">
            <mxPoint x="1307.4999999999995" y="1480" as="sourcePoint" />
            <mxPoint x="1342.5000000000005" y="1464.5" as="targetPoint" />
          </mxGeometry>
        </mxCell>
        <mxCell id="JG1wNyQjboigXretD9Ye-1" value="" style="endArrow=none;html=1;rounded=0;align=left;entryX=1;entryY=0.5;entryDx=0;entryDy=0;exitX=0.729;exitY=0.997;exitDx=0;exitDy=0;exitPerimeter=0;" parent="1" source="mOfdOxVqDoghl0tVKRiO-1" target="7vURNP84gYrgIZNCSmpS-7" edge="1">
          <mxGeometry relative="1" as="geometry">
            <mxPoint x="1804" y="880.6500000000001" as="sourcePoint" />
            <mxPoint x="1333" y="1220.5" as="targetPoint" />
            <Array as="points">
              <mxPoint x="1820" y="1397" />
            </Array>
          </mxGeometry>
        </mxCell>
        <mxCell id="JG1wNyQjboigXretD9Ye-2" value="M" style="resizable=0;html=1;align=left;verticalAlign=bottom;" parent="JG1wNyQjboigXretD9Ye-1" connectable="0" vertex="1">
          <mxGeometry x="1" relative="1" as="geometry" />
        </mxCell>
        <mxCell id="oN729ArxQUPiIeWah8Cz-12" value="" style="endArrow=none;html=1;rounded=0;entryX=0;entryY=0.5;entryDx=0;entryDy=0;exitX=1;exitY=0.5;exitDx=0;exitDy=0;" parent="1" source="mOfdOxVqDoghl0tVKRiO-15" target="oN729ArxQUPiIeWah8Cz-28" edge="1">
          <mxGeometry relative="1" as="geometry">
            <mxPoint x="930" y="1080" as="sourcePoint" />
            <mxPoint x="1089" y="1076" as="targetPoint" />
          </mxGeometry>
        </mxCell>
        <mxCell id="oN729ArxQUPiIeWah8Cz-13" value="N" style="resizable=0;html=1;align=right;verticalAlign=bottom;" parent="oN729ArxQUPiIeWah8Cz-12" connectable="0" vertex="1">
          <mxGeometry x="1" relative="1" as="geometry" />
        </mxCell>
        <mxCell id="oN729ArxQUPiIeWah8Cz-28" value="IN_CART" style="rhombus;whiteSpace=wrap;html=1;shadow=1;aspect=fixed;" parent="1" vertex="1">
          <mxGeometry x="1265.63" y="1018.5" width="115" height="115" as="geometry" />
        </mxCell>
        <mxCell id="oN729ArxQUPiIeWah8Cz-29" value="" style="endArrow=none;html=1;rounded=0;entryX=1;entryY=0.5;entryDx=0;entryDy=0;exitX=0.25;exitY=1;exitDx=0;exitDy=0;" parent="1" source="mOfdOxVqDoghl0tVKRiO-1" target="oN729ArxQUPiIeWah8Cz-28" edge="1">
          <mxGeometry relative="1" as="geometry">
            <mxPoint x="1667" y="702.9800000000001" as="sourcePoint" />
            <mxPoint x="1457" y="1072.3299999999997" as="targetPoint" />
            <Array as="points">
              <mxPoint x="1769" y="1076" />
            </Array>
          </mxGeometry>
        </mxCell>
        <mxCell id="oN729ArxQUPiIeWah8Cz-30" value="M" style="resizable=0;html=1;align=left;verticalAlign=bottom;" parent="oN729ArxQUPiIeWah8Cz-29" connectable="0" vertex="1">
          <mxGeometry x="1" relative="1" as="geometry" />
        </mxCell>
        <mxCell id="oN729ArxQUPiIeWah8Cz-32" value="IN_WISHLIST" style="rhombus;whiteSpace=wrap;html=1;shadow=1;aspect=fixed;" parent="1" vertex="1">
          <mxGeometry x="1268" y="1170" width="115" height="115" as="geometry" />
        </mxCell>
        <mxCell id="oN729ArxQUPiIeWah8Cz-33" value="" style="endArrow=none;html=1;rounded=0;entryX=0;entryY=0.5;entryDx=0;entryDy=0;exitX=0.75;exitY=1;exitDx=0;exitDy=0;" parent="1" source="mOfdOxVqDoghl0tVKRiO-15" target="oN729ArxQUPiIeWah8Cz-32" edge="1">
          <mxGeometry relative="1" as="geometry">
            <mxPoint x="880" y="1226.91" as="sourcePoint" />
            <mxPoint x="1228.63" y="1226.91" as="targetPoint" />
            <Array as="points">
              <mxPoint x="888" y="1228" />
            </Array>
          </mxGeometry>
        </mxCell>
        <mxCell id="oN729ArxQUPiIeWah8Cz-34" value="N" style="resizable=0;html=1;align=right;verticalAlign=bottom;" parent="oN729ArxQUPiIeWah8Cz-33" connectable="0" vertex="1">
          <mxGeometry x="1" relative="1" as="geometry" />
        </mxCell>
        <mxCell id="oN729ArxQUPiIeWah8Cz-35" value="" style="endArrow=none;html=1;rounded=0;entryX=1;entryY=0.5;entryDx=0;entryDy=0;exitX=0.5;exitY=1;exitDx=0;exitDy=0;" parent="1" source="mOfdOxVqDoghl0tVKRiO-1" target="oN729ArxQUPiIeWah8Cz-32" edge="1">
          <mxGeometry relative="1" as="geometry">
            <mxPoint x="1806.19" y="1021.32" as="sourcePoint" />
            <mxPoint x="1417.8200000000002" y="1226.67" as="targetPoint" />
            <Array as="points">
              <mxPoint x="1794" y="1227" />
            </Array>
          </mxGeometry>
        </mxCell>
        <mxCell id="oN729ArxQUPiIeWah8Cz-36" value="M" style="resizable=0;html=1;align=left;verticalAlign=bottom;" parent="oN729ArxQUPiIeWah8Cz-35" connectable="0" vertex="1">
          <mxGeometry x="1" relative="1" as="geometry" />
        </mxCell>
        <mxCell id="vu-MjebXKjD8oBa5Xa2o-1" value="Quantity" style="ellipse;whiteSpace=wrap;html=1;shadow=1;fillColor=#d5e8d4;strokeColor=#82b366;" vertex="1" parent="1">
          <mxGeometry x="1204.5" y="997.1399999999999" width="80" height="38.86" as="geometry" />
        </mxCell>
        <mxCell id="vu-MjebXKjD8oBa5Xa2o-2" value="" style="endArrow=none;html=1;entryX=1;entryY=1;entryDx=0;entryDy=0;exitX=0;exitY=0;exitDx=0;exitDy=0;" edge="1" parent="1" source="oN729ArxQUPiIeWah8Cz-28" target="vu-MjebXKjD8oBa5Xa2o-1">
          <mxGeometry width="50" height="50" relative="1" as="geometry">
            <mxPoint x="1300" y="1050" as="sourcePoint" />
            <mxPoint x="1390" y="1050" as="targetPoint" />
          </mxGeometry>
        </mxCell>
      </root>
    </mxGraphModel>
  </diagram>
</mxfile>
